<svg xmlns="http://www.w3.org/2000/svg" viewBox="0.00 0.00 615.00 615.00"> <g stroke-width="2.00" fill="none" stroke-linecap="butt"> <path stroke="#154c75" vector-effect="non-scaling-stroke" d=" M 95.73 264.70 C 93.34 267.82 91.73 271.29 89.37 274.55 Q 87.90 276.59 86.59 278.97 C 83.72 284.20 79.72 288.55 76.68 293.66 C 74.01 298.15 70.46 301.95 67.91 306.68 Q 66.14 309.96 64.12 312.66 Q 61.09 316.72 58.63 320.86 Q 56.08 325.16 53.36 328.63 Q 52.22 330.08 53.68 331.22 Q 58.12 334.66 62.13 338.50 C 65.18 341.42 68.66 343.76 71.60 346.52 Q 78.21 352.76 84.19 357.66 C 90.66 362.95 96.54 368.96 103.18 373.97 Q 107.41 377.16 109.13 380.03 Q 111.90 384.65 111.93 388.48 C 112.06 402.85 111.89 417.89 112.59 432.99 Q 113.02 442.38 113.06 451.96 Q 113.07 454.86 113.86 463.41 Q 114.35 468.72 113.99 474.90 A 1.03 1.02 -89.2 0 0 115.04 475.99 Q 122.72 475.71 130.55 476.92 Q 135.86 477.74 141.82 477.94 Q 150.03 478.23 157.01 479.12 C 163.84 480.00 170.65 479.87 177.49 480.64 C 182.10 481.17 186.98 480.29 190.50 483.84 C 195.59 488.99 199.71 495.67 204.49 501.52 Q 212.64 511.51 219.29 520.19 C 225.59 528.41 232.04 536.20 238.06 544.53 A 3.83 3.83 0.0 0 0 242.75 545.77 C 246.54 544.05 250.18 542.19 253.98 540.68 Q 267.70 535.22 280.00 530.18 Q 292.09 525.24 303.88 520.48 Q 305.68 519.75 307.38 518.91 Q 311.90 516.68 317.35 519.42 C 335.72 528.67 359.86 539.58 381.09 549.90 A 2.00 1.99 32.3 0 0 383.51 549.36 C 388.49 543.17 393.08 536.05 397.63 530.30 Q 408.40 516.66 419.15 501.90 C 420.95 499.44 423.53 496.64 426.59 496.22 Q 437.48 494.72 448.64 492.54 C 451.52 491.98 454.47 492.11 457.32 491.51 Q 470.72 488.69 475.09 488.10 Q 485.97 486.62 497.04 484.34 C 499.59 483.81 502.26 483.98 504.84 483.24 Q 508.55 482.19 512.39 481.72 Q 512.93 481.66 512.95 481.12 C 513.10 477.85 511.98 475.01 511.99 471.73 Q 512.03 446.03 511.98 420.20 C 511.98 417.61 511.07 415.17 511.84 412.67 A 2.02 2.00 -44.8 0 0 511.85 411.51 Q 510.31 406.32 514.04 402.39 Q 522.21 393.77 529.49 387.43 Q 530.82 386.27 532.03 384.85 C 534.17 382.32 536.94 380.42 539.31 378.05 Q 544.83 372.55 550.28 367.12 Q 554.91 362.51 560.10 358.07 Q 565.33 353.58 569.95 348.20 A 1.56 1.56 0.0 0 0 570.07 346.31 Q 567.43 342.36 565.22 337.53 C 562.51 331.57 559.11 326.15 556.19 320.14 C 554.44 316.55 552.15 313.20 550.54 309.44 C 548.65 305.02 546.02 300.86 543.80 296.46 Q 539.25 287.46 534.17 279.14 Q 533.80 278.54 534.10 277.90 Q 536.01 273.82 536.02 269.22 C 536.02 266.09 537.89 263.78 537.96 260.65 C 538.06 256.49 539.45 252.51 539.94 248.31 Q 540.89 240.20 543.11 232.70 Q 543.91 230.02 544.10 227.10 C 544.30 223.94 545.52 220.93 545.79 217.76 C 546.01 215.09 546.25 212.84 546.92 210.11 Q 548.10 205.32 548.68 200.73 A 1.66 1.65 -74.9 0 0 547.70 199.01 C 544.72 197.73 541.70 196.65 538.84 195.14 C 528.98 189.96 518.58 186.10 508.73 180.80 C 506.03 179.35 503.10 178.43 500.39 176.94 Q 497.47 175.34 494.57 174.20 Q 488.42 171.79 480.13 167.39 C 477.13 165.79 476.09 160.23 475.97 157.25 C 475.85 154.12 474.37 151.46 474.10 148.25 Q 473.82 144.92 472.68 141.44 C 471.86 138.96 472.11 136.35 471.36 133.84 Q 470.20 129.99 469.97 126.24 C 469.72 122.04 468.15 118.33 467.79 114.05 C 467.55 111.23 466.10 108.92 466.05 106.01 C 465.99 102.81 464.31 100.61 464.08 97.60 C 463.91 95.42 464.19 92.04 461.03 92.02 Q 424.13 91.86 386.65 92.01 C 384.86 92.02 382.79 91.42 381.38 90.38 C 374.48 85.26 367.50 80.16 360.88 74.77 Q 354.73 69.76 347.75 64.47 Q 338.90 57.75 329.57 49.92 Q 325.18 46.23 319.23 42.69 C 317.70 41.78 316.38 42.03 315.03 43.03 Q 305.24 50.24 294.82 58.13 Q 291.81 60.42 288.78 62.44 C 284.72 65.14 281.30 68.47 277.35 71.17 Q 274.56 73.07 271.78 74.94 C 266.23 78.66 261.36 84.42 254.19 84.82 C 239.22 85.65 223.41 84.19 209.22 84.02 Q 189.53 83.78 170.86 84.03 A 0.70 0.70 0.0 0 0 170.17 84.75 Q 170.28 88.11 168.99 91.17 C 168.09 93.31 168.12 95.35 167.92 97.59 C 167.60 101.12 166.37 104.37 165.93 107.86 C 164.89 116.07 163.03 124.22 161.87 132.41 C 161.58 134.46 160.47 136.02 160.27 138.10 Q 159.62 144.77 157.67 153.21 C 157.12 155.60 154.64 156.75 152.42 157.42 Q 131.10 163.77 108.31 171.20 C 99.15 174.19 89.77 176.52 80.80 179.74 C 79.67 180.15 78.63 180.05 77.47 180.25 Q 76.87 180.35 77.11 180.91 C 78.10 183.25 77.87 185.64 78.62 188.04 C 79.30 190.20 79.87 192.32 80.03 194.61 Q 80.21 197.34 81.37 199.77 C 82.36 201.83 81.98 204.48 82.58 206.71 Q 85.50 217.71 87.78 229.19 C 88.13 230.93 88.10 232.75 88.84 234.40 C 90.14 237.29 90.07 240.33 90.84 243.34 C 92.04 248.03 93.51 252.82 94.11 257.66 Q 94.51 260.80 95.85 263.65 A 1.02 1.01 -38.6 0 1 95.73 264.70" /> <path stroke="#95cbf4" vector-effect="non-scaling-stroke" d=" M 280.07 340.77 Q 279.41 341.09 278.98 340.77 Q 253.70 322.11 233.17 306.59 Q 229.56 303.86 225.91 301.57 A 1.34 1.34 0.0 0 0 224.32 301.69 Q 223.32 302.56 222.46 303.65 Q 211.29 317.92 201.46 330.84 C 199.87 332.94 202.23 334.58 203.68 335.75 Q 244.45 368.65 281.83 399.16 Q 283.47 400.50 285.42 401.50 Q 285.87 401.73 286.37 401.59 Q 287.50 401.26 288.29 400.34 Q 348.76 329.17 407.28 260.42 Q 409.15 258.21 407.00 256.28 Q 393.56 244.21 380.94 232.77 Q 379.91 231.83 378.72 231.24 Q 378.26 231.02 377.84 231.31 Q 376.51 232.25 375.56 233.32 C 343.82 269.05 312.15 304.85 280.36 340.55 A 0.89 0.85 6.5 0 1 280.07 340.77" /> </g> <path fill="none" d=" M 615.00 0.00 L 615.00 615.00 L 0.00 615.00 L 0.00 0.00 L 615.00 0.00 Z M 95.73 264.70 C 93.34 267.82 91.73 271.29 89.37 274.55 Q 87.90 276.59 86.59 278.97 C 83.72 284.20 79.72 288.55 76.68 293.66 C 74.01 298.15 70.46 301.95 67.91 306.68 Q 66.14 309.96 64.12 312.66 Q 61.09 316.72 58.63 320.86 Q 56.08 325.16 53.36 328.63 Q 52.22 330.08 53.68 331.22 Q 58.12 334.66 62.13 338.50 C 65.18 341.42 68.66 343.76 71.60 346.52 Q 78.21 352.76 84.19 357.66 C 90.66 362.95 96.54 368.96 103.18 373.97 Q 107.41 377.16 109.13 380.03 Q 111.90 384.65 111.93 388.48 C 112.06 402.85 111.89 417.89 112.59 432.99 Q 113.02 442.38 113.06 451.96 Q 113.07 454.86 113.86 463.41 Q 114.35 468.72 113.99 474.90 A 1.03 1.02 -89.2 0 0 115.04 475.99 Q 122.72 475.71 130.55 476.92 Q 135.86 477.74 141.82 477.94 Q 150.03 478.23 157.01 479.12 C 163.84 480.00 170.65 479.87 177.49 480.64 C 182.10 481.17 186.98 480.29 190.50 483.84 C 195.59 488.99 199.71 495.67 204.49 501.52 Q 212.64 511.51 219.29 520.19 C 225.59 528.41 232.04 536.20 238.06 544.53 A 3.83 3.83 0.0 0 0 242.75 545.77 C 246.54 544.05 250.18 542.19 253.98 540.68 Q 267.70 535.22 280.00 530.18 Q 292.09 525.24 303.88 520.48 Q 305.68 519.75 307.38 518.91 Q 311.90 516.68 317.35 519.42 C 335.72 528.67 359.86 539.58 381.09 549.90 A 2.00 1.99 32.3 0 0 383.51 549.36 C 388.49 543.17 393.08 536.05 397.63 530.30 Q 408.40 516.66 419.15 501.90 C 420.95 499.44 423.53 496.64 426.59 496.22 Q 437.48 494.72 448.64 492.54 C 451.52 491.98 454.47 492.11 457.32 491.51 Q 470.72 488.69 475.09 488.10 Q 485.97 486.62 497.04 484.34 C 499.59 483.81 502.26 483.98 504.84 483.24 Q 508.55 482.19 512.39 481.72 Q 512.93 481.66 512.95 481.12 C 513.10 477.85 511.98 475.01 511.99 471.73 Q 512.03 446.03 511.98 420.20 C 511.98 417.61 511.07 415.17 511.84 412.67 A 2.02 2.00 -44.8 0 0 511.85 411.51 Q 510.31 406.32 514.04 402.39 Q 522.21 393.77 529.49 387.43 Q 530.82 386.27 532.03 384.85 C 534.17 382.32 536.94 380.42 539.31 378.05 Q 544.83 372.55 550.28 367.12 Q 554.91 362.51 560.10 358.07 Q 565.33 353.58 569.95 348.20 A 1.56 1.56 0.0 0 0 570.07 346.31 Q 567.43 342.36 565.22 337.53 C 562.51 331.57 559.11 326.15 556.19 320.14 C 554.44 316.55 552.15 313.20 550.54 309.44 C 548.65 305.02 546.02 300.86 543.80 296.46 Q 539.25 287.46 534.17 279.14 Q 533.80 278.54 534.10 277.90 Q 536.01 273.82 536.02 269.22 C 536.02 266.09 537.89 263.78 537.96 260.65 C 538.06 256.49 539.45 252.51 539.94 248.31 Q 540.89 240.20 543.11 232.70 Q 543.91 230.02 544.10 227.10 C 544.30 223.94 545.52 220.93 545.79 217.76 C 546.01 215.09 546.25 212.84 546.92 210.11 Q 548.10 205.32 548.68 200.73 A 1.66 1.65 -74.9 0 0 547.70 199.01 C 544.72 197.73 541.70 196.65 538.84 195.14 C 528.98 189.96 518.58 186.10 508.73 180.80 C 506.03 179.35 503.10 178.43 500.39 176.94 Q 497.47 175.34 494.57 174.20 Q 488.42 171.79 480.13 167.39 C 477.13 165.79 476.09 160.23 475.97 157.25 C 475.85 154.12 474.37 151.46 474.10 148.25 Q 473.82 144.92 472.68 141.44 C 471.86 138.96 472.11 136.35 471.36 133.84 Q 470.20 129.99 469.97 126.24 C 469.72 122.04 468.15 118.33 467.79 114.05 C 467.55 111.23 466.10 108.92 466.05 106.01 C 465.99 102.81 464.31 100.61 464.08 97.60 C 463.91 95.42 464.19 92.04 461.03 92.02 Q 424.13 91.86 386.65 92.01 C 384.86 92.02 382.79 91.42 381.38 90.38 C 374.48 85.26 367.50 80.16 360.88 74.77 Q 354.73 69.76 347.75 64.47 Q 338.90 57.75 329.57 49.92 Q 325.18 46.23 319.23 42.69 C 317.70 41.78 316.38 42.03 315.03 43.03 Q 305.24 50.24 294.82 58.13 Q 291.81 60.42 288.78 62.44 C 284.72 65.14 281.30 68.47 277.35 71.17 Q 274.56 73.07 271.78 74.94 C 266.23 78.66 261.36 84.42 254.19 84.82 C 239.22 85.65 223.41 84.19 209.22 84.02 Q 189.53 83.78 170.86 84.03 A 0.70 0.70 0.0 0 0 170.17 84.75 Q 170.28 88.11 168.99 91.17 C 168.09 93.31 168.12 95.35 167.92 97.59 C 167.60 101.12 166.37 104.37 165.93 107.86 C 164.89 116.07 163.03 124.22 161.87 132.41 C 161.58 134.46 160.47 136.02 160.27 138.10 Q 159.62 144.77 157.67 153.21 C 157.12 155.60 154.64 156.75 152.42 157.42 Q 131.10 163.77 108.31 171.20 C 99.15 174.19 89.77 176.52 80.80 179.74 C 79.67 180.15 78.63 180.05 77.47 180.25 Q 76.87 180.35 77.11 180.91 C 78.10 183.25 77.87 185.64 78.62 188.04 C 79.30 190.20 79.87 192.32 80.03 194.61 Q 80.21 197.34 81.37 199.77 C 82.36 201.83 81.98 204.48 82.58 206.71 Q 85.50 217.71 87.78 229.19 C 88.13 230.93 88.10 232.75 88.84 234.40 C 90.14 237.29 90.07 240.33 90.84 243.34 C 92.04 248.03 93.51 252.82 94.11 257.66 Q 94.51 260.80 95.85 263.65 A 1.02 1.01 -38.6 0 1 95.73 264.70 Z" /> <path fill="#2a97e9" d=" M 95.73 264.70 A 1.02 1.01 -38.6 0 0 95.85 263.65 Q 94.51 260.80 94.11 257.66 C 93.51 252.82 92.04 248.03 90.84 243.34 C 90.07 240.33 90.14 237.29 88.84 234.40 C 88.10 232.75 88.13 230.93 87.78 229.19 Q 85.50 217.71 82.58 206.71 C 81.98 204.48 82.36 201.83 81.37 199.77 Q 80.21 197.34 80.03 194.61 C 79.87 192.32 79.30 190.20 78.62 188.04 C 77.87 185.64 78.10 183.25 77.11 180.91 Q 76.87 180.35 77.47 180.25 C 78.63 180.05 79.67 180.15 80.80 179.74 C 89.77 176.52 99.15 174.19 108.31 171.20 Q 131.10 163.77 152.42 157.42 C 154.64 156.75 157.12 155.60 157.67 153.21 Q 159.62 144.77 160.27 138.10 C 160.47 136.02 161.58 134.46 161.87 132.41 C 163.03 124.22 164.89 116.07 165.93 107.86 C 166.37 104.37 167.60 101.12 167.92 97.59 C 168.12 95.35 168.09 93.31 168.99 91.17 Q 170.28 88.11 170.17 84.75 A 0.70 0.70 0.0 0 1 170.86 84.03 Q 189.53 83.78 209.22 84.02 C 223.41 84.19 239.22 85.65 254.19 84.82 C 261.36 84.42 266.23 78.66 271.78 74.94 Q 274.56 73.07 277.35 71.17 C 281.30 68.47 284.72 65.14 288.78 62.44 Q 291.81 60.42 294.82 58.13 Q 305.24 50.24 315.03 43.03 C 316.38 42.03 317.70 41.78 319.23 42.69 Q 325.18 46.23 329.57 49.92 Q 338.90 57.75 347.75 64.47 Q 354.73 69.76 360.88 74.77 C 367.50 80.16 374.48 85.26 381.38 90.38 C 382.79 91.42 384.86 92.02 386.65 92.01 Q 424.13 91.86 461.03 92.02 C 464.19 92.04 463.91 95.42 464.08 97.60 C 464.31 100.61 465.99 102.81 466.05 106.01 C 466.10 108.92 467.55 111.23 467.79 114.05 C 468.15 118.33 469.72 122.04 469.97 126.24 Q 470.20 129.99 471.36 133.84 C 472.11 136.35 471.86 138.96 472.68 141.44 Q 473.82 144.92 474.10 148.25 C 474.37 151.46 475.85 154.12 475.97 157.25 C 476.09 160.23 477.13 165.79 480.13 167.39 Q 488.42 171.79 494.57 174.20 Q 497.47 175.34 500.39 176.94 C 503.10 178.43 506.03 179.35 508.73 180.80 C 518.58 186.10 528.98 189.96 538.84 195.14 C 541.70 196.65 544.72 197.73 547.70 199.01 A 1.66 1.65 -74.9 0 1 548.68 200.73 Q 548.10 205.32 546.92 210.11 C 546.25 212.84 546.01 215.09 545.79 217.76 C 545.52 220.93 544.30 223.94 544.10 227.10 Q 543.91 230.02 543.11 232.70 Q 540.89 240.20 539.94 248.31 C 539.45 252.51 538.06 256.49 537.96 260.65 C 537.89 263.78 536.02 266.09 536.02 269.22 Q 536.01 273.82 534.10 277.90 Q 533.80 278.54 534.17 279.14 Q 539.25 287.46 543.80 296.46 C 546.02 300.86 548.65 305.02 550.54 309.44 C 552.15 313.20 554.44 316.55 556.19 320.14 C 559.11 326.15 562.51 331.57 565.22 337.53 Q 567.43 342.36 570.07 346.31 A 1.56 1.56 0.0 0 1 569.95 348.20 Q 565.33 353.58 560.10 358.07 Q 554.91 362.51 550.28 367.12 Q 544.83 372.55 539.31 378.05 C 536.94 380.42 534.17 382.32 532.03 384.85 Q 530.82 386.27 529.49 387.43 Q 522.21 393.77 514.04 402.39 Q 510.31 406.32 511.85 411.51 A 2.02 2.00 -44.8 0 1 511.84 412.67 C 511.07 415.17 511.98 417.61 511.98 420.20 Q 512.03 446.03 511.99 471.73 C 511.98 475.01 513.10 477.85 512.95 481.12 Q 512.93 481.66 512.39 481.72 Q 508.55 482.19 504.84 483.24 C 502.26 483.98 499.59 483.81 497.04 484.34 Q 485.97 486.62 475.09 488.10 Q 470.72 488.69 457.32 491.51 C 454.47 492.11 451.52 491.98 448.64 492.54 Q 437.48 494.72 426.59 496.22 C 423.53 496.64 420.95 499.44 419.15 501.90 Q 408.40 516.66 397.63 530.30 C 393.08 536.05 388.49 543.17 383.51 549.36 A 2.00 1.99 32.3 0 1 381.09 549.90 C 359.86 539.58 335.72 528.67 317.35 519.42 Q 311.90 516.68 307.38 518.91 Q 305.68 519.75 303.88 520.48 Q 292.09 525.24 280.00 530.18 Q 267.70 535.22 253.98 540.68 C 250.18 542.19 246.54 544.05 242.75 545.77 A 3.83 3.83 0.0 0 1 238.06 544.53 C 232.04 536.20 225.59 528.41 219.29 520.19 Q 212.64 511.51 204.49 501.52 C 199.71 495.67 195.59 488.99 190.50 483.84 C 186.98 480.29 182.10 481.17 177.49 480.64 C 170.65 479.87 163.84 480.00 157.01 479.12 Q 150.03 478.23 141.82 477.94 Q 135.86 477.74 130.55 476.92 Q 122.72 475.71 115.04 475.99 A 1.03 1.02 -89.2 0 1 113.99 474.90 Q 114.35 468.72 113.86 463.41 Q 113.07 454.86 113.06 451.96 Q 113.02 442.38 112.59 432.99 C 111.89 417.89 112.06 402.85 111.93 388.48 Q 111.90 384.65 109.13 380.03 Q 107.41 377.16 103.18 373.97 C 96.54 368.96 90.66 362.95 84.19 357.66 Q 78.21 352.76 71.60 346.52 C 68.66 343.76 65.18 341.42 62.13 338.50 Q 58.12 334.66 53.68 331.22 Q 52.22 330.08 53.36 328.63 Q 56.08 325.16 58.63 320.86 Q 61.09 316.72 64.12 312.66 Q 66.14 309.96 67.91 306.68 C 70.46 301.95 74.01 298.15 76.68 293.66 C 79.72 288.55 83.72 284.20 86.59 278.97 Q 87.90 276.59 89.37 274.55 C 91.73 271.29 93.34 267.82 95.73 264.70 Z M 280.07 340.77 Q 279.41 341.09 278.98 340.77 Q 253.70 322.11 233.17 306.59 Q 229.56 303.86 225.91 301.57 A 1.34 1.34 0.0 0 0 224.32 301.69 Q 223.32 302.56 222.46 303.65 Q 211.29 317.92 201.46 330.84 C 199.87 332.94 202.23 334.58 203.68 335.75 Q 244.45 368.65 281.83 399.16 Q 283.47 400.50 285.42 401.50 Q 285.87 401.73 286.37 401.59 Q 287.50 401.26 288.29 400.34 Q 348.76 329.17 407.28 260.42 Q 409.15 258.21 407.00 256.28 Q 393.56 244.21 380.94 232.77 Q 379.91 231.83 378.72 231.24 Q 378.26 231.02 377.84 231.31 Q 376.51 232.25 375.56 233.32 C 343.82 269.05 312.15 304.85 280.36 340.55 A 0.89 0.85 6.5 0 1 280.07 340.77 Z" /> <path fill="#ffffff" d=" M 280.07 340.77 A 0.89 0.85 6.5 0 0 280.36 340.55 C 312.15 304.85 343.82 269.05 375.56 233.32 Q 376.51 232.25 377.84 231.31 Q 378.26 231.02 378.72 231.24 Q 379.91 231.83 380.94 232.77 Q 393.56 244.21 407.00 256.28 Q 409.15 258.21 407.28 260.42 Q 348.76 329.17 288.29 400.34 Q 287.50 401.26 286.37 401.59 Q 285.87 401.73 285.42 401.50 Q 283.47 400.50 281.83 399.16 Q 244.45 368.65 203.68 335.75 C 202.23 334.58 199.87 332.94 201.46 330.84 Q 211.29 317.92 222.46 303.65 Q 223.32 302.56 224.32 301.69 A 1.34 1.34 0.0 0 1 225.91 301.57 Q 229.56 303.86 233.17 306.59 Q 253.70 322.11 278.98 340.77 Q 279.41 341.09 280.07 340.77 Z" /></svg>