<svg width="45" height="45" viewBox="0 0 45 45" fill="none" xmlns="http://www.w3.org/2000/svg">
        <rect width="45" height="45" rx="12" fill="white" fill-opacity="0.04"></rect>
        <path d="M13.4781 27.6456V24.5259H10.5015V27.5763H13.4781V27.6456Z" fill="white"></path>
        <path d="M33.9079 25.8433C33.8402 26.1899 33.7049 26.6058 33.5696 26.9525C33.5696 27.0218 33.502 27.0911 33.502 27.1605C33.2314 27.8537 32.8931 28.4777 32.5549 29.1016C32.2166 29.5869 31.8784 30.0722 31.5401 30.4881C31.3372 30.6961 31.2019 30.9041 30.9989 31.1121L31.0666 31.0428C30.796 31.3201 30.5254 31.5974 30.1871 31.8747C30.0518 32.0133 29.8489 32.0827 29.7136 32.2213C29.6459 32.2213 29.5783 32.2906 29.5783 32.2906C29.1724 32.5679 28.7665 32.7759 28.2929 32.9839C27.7517 33.2612 27.1429 33.4692 26.534 33.6078C25.9252 33.7465 25.2487 33.8851 24.6398 33.9545C23.8957 34.0238 23.1515 34.0238 22.3397 33.8851C18.8895 33.3999 15.9806 31.3894 14.2217 28.6163C14.6276 29.1016 15.0335 29.5176 15.507 29.8642C16.3188 30.4881 17.2659 30.9734 18.3483 31.1814C18.8219 31.3201 19.3631 31.3201 19.8366 31.3201C19.9719 31.3201 20.1072 31.3201 20.2425 31.3201C20.9867 31.3201 21.7309 31.1814 22.4074 30.9041C22.5427 30.8348 22.6103 30.8348 22.7456 30.7654C22.9486 30.6961 23.2192 30.5575 23.4221 30.4881C23.4898 30.4881 23.4898 30.4188 23.5574 30.4188C25.6546 29.2403 27.2105 27.1605 27.4811 24.526C27.5488 24.0408 27.5488 23.4861 27.5488 23.0009C29.443 23.0009 30.9989 24.1794 31.8107 25.7739C31.8784 25.9819 31.946 26.1899 32.0137 26.3979C32.0137 26.2592 32.0137 26.1899 32.0137 26.0512C32.0137 25.4966 31.946 25.0113 31.8784 24.4567C31.2019 20.7824 28.0223 18.0787 24.2339 18.0787C23.7604 18.0787 23.3545 18.148 22.8809 18.2173C22.8809 18.2173 22.8809 18.2173 22.8133 18.2173C21.4603 18.4253 20.5132 18.8413 19.0248 19.9505C18.416 20.3665 17.1983 21.4757 16.2512 22.3769C15.7776 22.8622 14.9658 22.3769 15.1011 21.6837C15.2364 21.0597 15.4394 20.3665 15.8453 19.6039C13.9511 16.9001 13.9511 13.9884 17.6718 11.4233C19.8366 9.89813 23.4221 9.48217 26.737 10.7301C28.7665 9.62083 31.6754 9.5515 34.3138 12.4632C34.5844 12.7405 34.3814 13.2258 33.9755 13.2258C33.2314 13.2258 32.2166 13.4338 31.4048 14.0577C31.4725 14.1271 31.5401 14.2657 31.6754 14.4044C34.855 18.7026 34.7873 22.7236 33.9079 25.8433Z" fill="white"></path>
      </svg>