<svg viewBox="0 0 270 30" fill="none" xmlns="http://www.w3.org/2000/svg"><title>Framedrop logo</title>
<path fill-rule="evenodd" clip-rule="evenodd" d="M19.938 11.324c3.02 0 5.45-2.498 5.45-5.517 0-3.02-2.444-5.517-5.45-5.517H1.973C.883.29 0 1.175 0 2.27v25.46c0 1.095.882 1.98 1.973 1.98h6.484c1.09 0 1.973-.885 1.973-1.98v-3.952h9.505c3.022 0 5.45-2.498 5.45-5.517 0-3.02-2.434-5.518-5.45-5.518h-9.502v-1.42h9.505ZM145.667 9.17a4.435 4.435 0 0 0 4.427-4.442A4.437 4.437 0 0 0 145.67.286h-17.346a1.975 1.975 0 0 0-1.973 1.98v25.461c0 1.095.882 1.98 1.973 1.98l17.346.003c2.445 0 4.424-1.99 4.424-4.442 0-2.453-1.983-4.442-4.424-4.442h-8.886v-1.384h8.886c2.445 0 4.424-1.99 4.424-4.442a4.437 4.437 0 0 0-4.424-4.442h-8.886v-1.39h8.883v.003ZM166.285.286h-11.841a1.975 1.975 0 0 0-1.973 1.98v25.461c0 1.095.882 1.98 1.973 1.98h11.764c8.107 0 14.658-6.586 14.658-14.71-.003-8.093-6.544-14.71-14.581-14.71Zm-.282 21.451h-1.408V8.16h1.408v13.577ZM226.105 0c-8.285 0-15 6.715-15 15s6.715 15 15 15c8.286 0 15-6.715 15-15s-6.714-15-15-15Zm.857 21.75h-1.417V8.153h1.417V21.75ZM258.647.29h-13.741a1.977 1.977 0 0 0-1.973 1.98v25.46c0 1.095.886 1.98 1.973 1.98h7.895a1.978 1.978 0 0 0 1.977-1.98v-3.675h3.865c6.311 0 11.357-5.482 11.357-11.881C270.003 5.77 264.951.29 258.647.29Zm-2.175 16.558h-1.412V8.168h1.412v8.678ZM51.24 21.135a11.869 11.869 0 0 0 4.067-8.961C55.307 5.77 50.258.29 43.951.29H30.214c-1.091 0-1.973.885-1.973 1.98v25.46c0 1.095.882 1.98 1.973 1.98l8.257-.006a1.98 1.98 0 0 0 1.903-1.98v-4.806h1.418v4.81c0 1.068.843 1.94 1.902 1.979h10.029c1.145 0 2.063-.982 1.78-2.096a11.889 11.889 0 0 0-4.263-6.476Zm-9.464-4.29h-1.409V8.16h1.409v8.684ZM71.679 0c-7.636 0-13.827 6.254-13.827 13.97v13.76c0 1.095.885 1.98 1.973 1.98h9.21a1.978 1.978 0 0 0 1.948-1.98v-4.905h1.411v4.906c0 1.084.87 1.966 1.947 1.98h9.192c1.09 0 1.973-.89 1.973-1.98V13.97C85.502 6.254 79.314 0 71.679 0Zm.686 16.854h-1.411V8.067h1.411v8.787ZM124.096 27.73c0 1.095-.883 1.98-1.973 1.98h-7.427a1.975 1.975 0 0 1-1.973-1.98c-.003-.01.003-15.524 0-15.53h-1.466c.006.012-.003 15.502 0 15.53 0 1.095-.882 1.98-1.973 1.98H102.9a1.977 1.977 0 0 1-1.887-1.976c.003-.094-.003-15.457 0-15.535h-1.424c.003.023 0 15.496 0 15.535a1.975 1.975 0 0 1-1.886 1.976H90.18a1.975 1.975 0 0 1-1.974-1.98V5.994c.305-7.905 11.55-7.976 11.954-.074.388-7.844 11.543-7.854 11.95-.019h.007c.407-7.828 11.571-7.825 11.979 0v21.83ZM205.697 21.135a11.87 11.87 0 0 0 4.067-8.961c0-6.4-5.049-11.881-11.356-11.881h-13.737a1.975 1.975 0 0 0-1.973 1.98v25.461c0 1.094.882 1.98 1.973 1.98l8.257-.007a1.98 1.98 0 0 0 1.903-1.98V22.92h1.418v4.808c0 1.07.843 1.942 1.902 1.98h10.029c1.145 0 2.062-.982 1.78-2.095a11.905 11.905 0 0 0-4.263-6.477Zm-9.467-4.29h-1.409V8.16h1.409v8.684Z" fill="#ffffff"></path>
</svg>