
<svg width="997" height="264" viewBox="0 0 997 264" fill="none" xmlns="http://www.w3.org/2000/svg">
<path d="M73.6489 217.478L103.864 158.797C105.296 155.929 104.645 152.408 102.171 150.191L70.393 123.85L67.3975 121.372C65.9649 120.198 65.1835 118.373 65.1835 116.417C65.1835 114.461 66.3556 112.113 68.1789 111.07L73.2581 107.81L182.136 38.1753C183.048 37.6537 183.178 36.3497 182.396 35.5672L156.61 9.87797C143.325 -3.29266 121.836 -3.29266 108.552 9.87797L9.96311 108.071C-3.32104 121.242 -3.32104 142.758 9.96311 155.929L72.086 217.739C72.607 218.261 73.5186 218.13 73.7791 217.478H73.6489Z" fill="#5846F6"/>
<path d="M255.069 108.071L192.946 46.2608C192.425 45.7392 191.513 45.8696 191.253 46.5216L161.038 105.203C159.605 108.072 160.256 111.592 162.731 113.809L195.16 140.802L197.374 142.628C198.806 143.802 199.718 145.627 199.718 147.583C199.718 149.539 198.546 151.756 196.853 152.93L193.206 155.277L82.8956 225.825C81.984 226.346 81.8537 227.65 82.6352 228.433L108.422 254.122C121.706 267.293 143.195 267.293 156.479 254.122L255.069 155.929C268.353 142.759 268.353 121.242 255.069 108.071Z" fill="#5846F6"/>
<path d="M437.919 156.45V94.8997H462.947V201.047H438.701V182.139H437.658C435.312 188.137 431.271 192.962 425.927 196.744C420.452 200.526 413.804 202.351 405.722 202.351C397.64 202.351 392.687 200.786 387.342 197.657C381.998 194.527 377.827 189.963 374.828 184.095C371.83 178.096 370.396 170.924 370.396 162.448V94.7693H395.424V158.536C395.424 165.317 397.249 170.663 400.899 174.575C404.549 178.488 409.372 180.574 415.368 180.574C421.364 180.574 422.668 179.661 426.057 177.836C429.576 176.01 432.314 173.402 434.53 169.751C436.746 166.23 437.919 161.666 437.919 156.319V156.45Z" fill="#ffffff"/>
<path d="M488.626 201.048V94.9H512.48V112.896H513.784C516 106.767 519.65 102.072 524.734 98.6817C529.817 95.2912 535.944 93.4656 543.113 93.4656C550.283 93.4656 556.409 95.1608 561.363 98.6817C566.316 102.203 569.835 106.897 571.791 112.896H572.834C575.18 107.027 579.221 102.333 584.696 98.8121C590.301 95.2912 596.949 93.4656 604.64 93.4656C612.33 93.4656 622.368 96.5952 628.494 102.724C634.621 108.853 637.749 117.851 637.749 129.717V201.048H612.721V133.63C612.721 126.979 611.027 122.154 607.507 119.155C603.988 116.156 599.686 114.591 594.602 114.591C589.519 114.591 583.913 116.416 580.524 120.198C577.135 123.98 575.441 128.805 575.441 134.803V201.048H550.934V132.586C550.934 127.109 549.24 122.676 545.981 119.416C542.722 116.156 538.421 114.46 533.076 114.46C527.732 114.46 526.167 115.373 523.3 117.199C520.432 119.024 517.955 121.632 516.261 124.893C514.566 128.153 513.654 132.065 513.654 136.368V200.917H488.626V201.048Z" fill="#ffffff"/>
<path d="M710.355 203.134C699.666 203.134 690.541 200.918 682.851 196.484C675.16 192.05 669.164 185.66 664.992 177.576C660.821 169.36 658.735 159.71 658.735 148.626C658.735 137.542 660.821 128.153 664.992 119.807C669.164 111.592 675.029 105.072 682.46 100.508C690.02 95.8133 698.754 93.5964 708.921 93.5964C719.088 93.5964 721.696 94.6397 727.431 96.7261C733.297 98.8126 738.381 102.073 742.943 106.376C747.375 110.81 751.025 116.286 753.502 123.067C755.978 129.848 757.412 137.803 757.412 147.192V154.886H670.337V138.064H733.427C733.427 133.239 732.384 128.935 730.299 125.284C728.213 121.503 725.476 118.503 721.826 116.417C718.176 114.2 714.005 113.157 709.182 113.157C704.359 113.157 699.536 114.33 695.755 116.808C691.845 119.286 688.847 122.546 686.761 126.458C684.675 130.5 683.502 134.804 683.502 139.498V154.234C683.502 160.362 684.676 165.709 686.892 170.143C689.108 174.576 692.366 177.967 696.407 180.184C700.448 182.531 705.271 183.704 710.616 183.704C715.96 183.704 717.524 183.183 720.522 182.14C723.521 181.096 725.997 179.532 728.213 177.576C730.429 175.489 731.993 173.011 733.167 170.012L756.5 172.62C755.066 178.749 752.198 184.226 748.157 188.79C743.986 193.354 738.772 196.875 732.384 199.483C725.997 202.091 718.698 203.265 710.355 203.265V203.134Z" fill="#ffffff"/>
<path d="M803.688 138.846V201.048H778.66V94.9H802.515V112.896H803.818C806.295 106.897 810.205 102.203 815.55 98.6817C820.894 95.1608 827.542 93.4656 835.494 93.4656C843.445 93.4656 849.181 95.0304 854.656 98.1601C860.13 101.29 864.302 105.854 867.43 111.722C870.428 117.72 871.992 124.893 871.862 133.369V201.048H846.835V137.281C846.835 130.239 845.01 124.632 841.36 120.589C837.71 116.547 832.626 114.591 826.239 114.591C819.852 114.591 818.027 115.504 814.638 117.46C811.248 119.416 808.641 122.154 806.686 125.675C804.731 129.196 803.818 133.629 803.818 138.715L803.688 138.846Z" fill="#ffffff"/>
<path d="M946.293 203.004C937.038 203.004 928.826 201.309 921.526 197.788C914.227 194.267 908.491 189.572 904.189 183.443C899.888 177.315 897.672 170.403 897.411 162.579H922.308C922.83 168.447 925.306 173.142 929.869 176.793C934.431 180.444 939.906 182.27 946.293 182.27C952.681 182.27 955.809 181.096 959.719 178.749C963.63 176.402 966.758 173.272 968.974 169.099C971.19 165.057 972.364 160.362 972.233 155.016C972.233 149.669 971.19 144.975 968.844 140.802C966.498 136.629 963.369 133.369 959.328 131.022C955.288 128.674 950.725 127.501 945.511 127.501C941.209 127.501 937.038 128.283 932.997 129.848C928.956 131.413 925.697 133.63 923.221 136.238L900.018 132.456L907.448 59.4308H989.57V80.8168H928.696L924.655 118.373H925.437C928.044 115.243 931.824 112.765 936.517 110.679C941.34 108.592 946.554 107.549 952.289 107.549C960.893 107.549 968.453 109.505 975.231 113.548C982.01 117.59 987.224 123.067 991.134 130.239C995.045 137.281 997 145.366 997 154.494C997 163.622 994.784 172.229 990.483 179.531C986.181 186.834 980.185 192.572 972.624 196.744C965.064 200.917 956.2 203.004 946.163 203.004H946.293Z" fill="#ffffff"/>
<path d="M333.246 165.969V59.822H307.957V144.323C307.957 157.624 306.784 171.838 312.52 184.226C315.518 190.746 320.993 195.962 327.38 199.092C334.028 202.482 341.588 203.656 349.018 202.352C350.843 201.961 352.668 201.439 354.493 200.787C356.318 200.135 355.927 200.135 356.579 199.874C357.231 199.613 357.23 199.483 357.491 199.483V181.748C330.508 186.443 333.376 166.1 333.376 166.1L333.246 165.969Z" fill="#ffffff"/>
</svg>