<svg width="230" height="26" viewBox="0 0 230 26" fill="none" xmlns="http://www.w3.org/2000/svg">
<path fill-rule="evenodd" clip-rule="evenodd" d="M39.3407 20.597L35.6037 24L24.174 10.5723C22.3093 8.49253 22.4709 5.2823 24.5343 3.40296L28.2703 0L39.701 13.4277C41.5647 15.5075 41.4041 18.7177 39.3407 20.597ZM22.7194 20.576L18.9337 23.9703L7.35386 11.8418C5.46436 9.76684 5.62779 6.56524 7.71896 4.69069L11.5047 1.29636L23.0844 13.4239C24.974 15.4988 24.8105 18.7004 22.7194 20.576ZM3.82297 23.4774C1.71174 23.4774 0 21.7601 0 19.642C0 17.523 1.71174 15.8066 3.82297 15.8066C5.93421 15.8066 7.64595 17.523 7.64595 19.642C7.64595 21.7601 5.93421 23.4774 3.82297 23.4774Z" fill="#ffffff"/>
<path d="M66.818 18.024V5.83048L61.3453 13.1274H60.7212L55.3685 5.80648V18.024H52.2002V1.2219H55.8486L61.1053 8.44681L66.3619 1.2219H69.9864V18.024H66.818ZM82.2753 7.79872L82.3714 6.16652H85.1797V18H82.4194L82.2753 16.2718C81.9553 16.9119 81.4192 17.4159 80.6671 17.784C79.9151 18.152 79.171 18.344 78.4349 18.36C76.6266 18.376 75.1545 17.84 74.0183 16.7518C72.8982 15.6477 72.3381 14.0875 72.3381 12.0713C72.3381 10.103 72.9142 8.57482 74.0663 7.48669C75.2345 6.39855 76.7147 5.86248 78.5069 5.87848C79.307 5.87848 80.0511 6.05451 80.7392 6.40655C81.4272 6.75859 81.9393 7.22265 82.2753 7.79872ZM78.7709 8.49481C77.7628 8.49481 76.9227 8.81485 76.2506 9.45493C75.5945 10.095 75.2665 10.9671 75.2665 12.0713C75.2665 13.1754 75.5945 14.0555 76.2506 14.7116C76.9227 15.3517 77.7628 15.6717 78.7709 15.6717C79.651 15.6717 80.3871 15.4237 80.9792 14.9276C81.5873 14.4316 81.9553 13.8315 82.0833 13.1274C82.2273 12.4233 82.2273 11.7272 82.0833 11.0391C81.9553 10.335 81.5873 9.73497 80.9792 9.2389C80.3871 8.74284 79.651 8.49481 78.7709 8.49481ZM99.3014 18H96.373V11.8072C96.373 10.8791 96.125 10.119 95.6289 9.52694C95.1328 8.93487 94.4287 8.63883 93.5166 8.63883C92.6365 8.63883 91.9084 8.95887 91.3324 9.59895C90.7723 10.239 90.4922 11.0231 90.4922 11.9512V18H87.5879V6.14252H90.2042L90.3962 7.75072C91.6124 6.56657 92.9086 5.9745 94.2847 5.9745C95.7249 5.9745 96.9171 6.49456 97.8612 7.53469C98.8213 8.55882 99.3014 9.975 99.3014 11.7832V18ZM109.931 6.45456L111.107 4.96637L113.267 6.59857L111.947 8.27878C112.779 9.2229 113.195 10.391 113.195 11.7832C113.195 12.6633 112.995 13.5194 112.595 14.3515C112.211 15.1836 111.579 15.7997 110.699 16.1998C112.331 17.0159 113.147 18.32 113.147 20.1123C113.147 21.7125 112.595 22.9926 111.491 23.9527C110.387 24.9129 108.963 25.3929 107.219 25.3929C105.474 25.3929 104.034 24.9049 102.898 23.9287C101.778 22.9526 101.218 21.6805 101.218 20.1123H104.122C104.122 20.8644 104.418 21.4724 105.01 21.9365C105.618 22.4166 106.354 22.6566 107.219 22.6566C108.083 22.6566 108.795 22.4326 109.355 21.9845C109.931 21.5364 110.219 20.9124 110.219 20.1123C110.219 19.3442 109.915 18.7521 109.307 18.336C108.715 17.936 108.019 17.736 107.219 17.736C105.362 17.736 103.898 17.2079 102.826 16.1518C101.754 15.0796 101.218 13.6235 101.218 11.7832C101.218 9.975 101.794 8.52682 102.946 7.43868C104.098 6.33454 105.522 5.78247 107.219 5.78247C108.371 5.78247 109.275 6.0065 109.931 6.45456ZM107.219 8.44681C106.338 8.44681 105.602 8.75084 105.01 9.35892C104.418 9.967 104.122 10.7751 104.122 11.7832C104.122 12.7913 104.418 13.5914 105.01 14.1835C105.602 14.7756 106.338 15.0716 107.219 15.0716C108.083 15.0716 108.811 14.7756 109.403 14.1835C109.995 13.5754 110.291 12.7753 110.291 11.7832C110.291 10.7911 109.995 9.991 109.403 9.38292C108.811 8.75884 108.083 8.44681 107.219 8.44681ZM116.19 7.70271C117.31 6.51856 118.79 5.92649 120.63 5.92649C122.471 5.92649 123.959 6.51856 125.095 7.70271C126.247 8.88686 126.823 10.351 126.823 12.0953C126.823 13.8555 126.263 15.3277 125.143 16.5118C124.023 17.68 122.527 18.264 120.654 18.264C118.782 18.264 117.286 17.68 116.166 16.5118C115.062 15.3277 114.51 13.8555 114.51 12.0953C114.51 10.351 115.07 8.88686 116.19 7.70271ZM120.654 8.59082C119.646 8.59082 118.854 8.93487 118.278 9.62295C117.718 10.311 117.438 11.1351 117.438 12.0953C117.438 13.0554 117.718 13.8795 118.278 14.5676C118.854 15.2397 119.646 15.5757 120.654 15.5757C121.663 15.5757 122.447 15.2397 123.007 14.5676C123.583 13.8795 123.871 13.0554 123.871 12.0953C123.871 11.1671 123.567 10.351 122.959 9.64696C122.367 8.94287 121.599 8.59082 120.654 8.59082ZM147.259 18L145.842 14.8316H137.057L135.617 18H132.185L139.722 1.1979H143.178L150.715 18H147.259ZM144.57 11.8792L141.45 4.72634L138.329 11.8792H144.57ZM163.317 18H160.389V11.8072C160.389 10.8791 160.141 10.119 159.645 9.52694C159.149 8.93487 158.445 8.63883 157.532 8.63883C156.652 8.63883 155.924 8.95887 155.348 9.59895C154.788 10.239 154.508 11.0231 154.508 11.9512V18H151.604V6.14252H154.22L154.412 7.75072C155.628 6.56657 156.924 5.9745 158.301 5.9745C159.741 5.9745 160.933 6.49456 161.877 7.53469C162.837 8.55882 163.317 9.975 163.317 11.7832V18ZM168.762 6.11851V18H165.834V6.11851H168.762ZM165.57 2.8301C165.57 3.37417 165.746 3.79822 166.098 4.10226C166.466 4.4063 166.866 4.55832 167.298 4.55832C167.73 4.55832 168.122 4.4063 168.474 4.10226C168.842 3.79822 169.026 3.37417 169.026 2.8301C169.026 2.28604 168.842 1.86198 168.474 1.55794C168.122 1.25391 167.73 1.10189 167.298 1.10189C166.866 1.10189 166.466 1.25391 166.098 1.55794C165.746 1.86198 165.57 2.28604 165.57 2.8301ZM182.214 18H179.286V11.6632C179.286 10.8311 179.07 10.127 178.637 9.55094C178.221 8.97487 177.629 8.68684 176.861 8.68684C176.093 8.68684 175.477 8.98287 175.013 9.57495C174.565 10.151 174.341 10.8471 174.341 11.6632V18H171.413V6.14252H174.125L174.341 7.5827C174.629 7.02263 175.061 6.61458 175.637 6.35854C176.213 6.08651 176.821 5.95049 177.461 5.95049C179.19 5.95049 180.358 6.68659 180.966 8.15877C181.878 6.71859 183.198 5.9985 184.926 5.9985C186.59 5.9985 187.839 6.48656 188.671 7.46268C189.519 8.4228 189.943 9.80698 189.943 11.6152V18H187.015V11.6152C187.015 10.7671 186.83 10.079 186.462 9.55094C186.094 9.00688 185.534 8.73484 184.782 8.73484C184.014 8.73484 183.39 9.02288 182.91 9.59895C182.446 10.159 182.214 10.8471 182.214 11.6632V18ZM202.22 7.79872L202.316 6.16652H205.124V18H202.364L202.22 16.2718C201.9 16.9119 201.364 17.4159 200.612 17.784C199.86 18.152 199.116 18.344 198.38 18.36C196.571 18.376 195.099 17.84 193.963 16.7518C192.843 15.6477 192.283 14.0875 192.283 12.0713C192.283 10.103 192.859 8.57482 194.011 7.48669C195.179 6.39855 196.659 5.86248 198.452 5.87848C199.252 5.87848 199.996 6.05451 200.684 6.40655C201.372 6.75859 201.884 7.22265 202.22 7.79872ZM198.716 8.49481C197.707 8.49481 196.867 8.81485 196.195 9.45493C195.539 10.095 195.211 10.9671 195.211 12.0713C195.211 13.1754 195.539 14.0555 196.195 14.7116C196.867 15.3517 197.707 15.6717 198.716 15.6717C199.596 15.6717 200.332 15.4237 200.924 14.9276C201.532 14.4316 201.9 13.8315 202.028 13.1274C202.172 12.4233 202.172 11.7272 202.028 11.0391C201.9 10.335 201.532 9.73497 200.924 9.2389C200.332 8.74284 199.596 8.49481 198.716 8.49481ZM208.289 3.14214L211.217 2.8301V6.19052H214.482V8.71084H211.193V13.8235C211.193 14.3675 211.329 14.7836 211.601 15.0716C211.889 15.3597 212.266 15.5037 212.73 15.5037C213.194 15.5037 213.666 15.3837 214.146 15.1436L214.962 17.64C214.178 17.96 213.37 18.128 212.538 18.144C211.225 18.192 210.185 17.848 209.417 17.1119C208.665 16.3598 208.289 15.2637 208.289 13.8235V8.71084H206.081V6.19052H208.289V3.14214ZM228.413 13.1274H219.172C219.268 13.8795 219.628 14.4876 220.252 14.9516C220.877 15.4157 221.693 15.6477 222.701 15.6477C223.277 15.6477 223.869 15.5517 224.477 15.3597C225.085 15.1516 225.549 14.8796 225.869 14.5436L227.741 16.3918C227.149 17.0159 226.389 17.4959 225.461 17.832C224.533 18.152 223.597 18.312 222.653 18.312C220.637 18.312 219.044 17.744 217.876 16.6078C216.724 15.4557 216.148 13.9195 216.148 11.9992C216.148 10.175 216.716 8.68684 217.852 7.53469C219.004 6.38255 220.532 5.80648 222.437 5.80648C224.469 5.80648 226.029 6.43855 227.117 7.70271C228.205 8.95087 228.638 10.7591 228.413 13.1274ZM219.22 10.7031H225.605C225.509 9.95099 225.189 9.38292 224.645 8.99887C224.101 8.59882 223.397 8.3988 222.533 8.3988C221.717 8.3988 221.013 8.59882 220.42 8.99887C219.828 9.38292 219.428 9.95099 219.22 10.7031Z" fill="#ffffff"/>
</svg>