
<svg id="Livello_1" data-name="Livello 1" xmlns="http://www.w3.org/2000/svg" viewBox="0 0 1524.4 203.79"><defs><style>.cls-1{fill:#75f461;}</style></defs><polygon class="cls-1" points="440.51 130.42 440.51 203.79 524.62 203.79 524.62 0.84 446.37 0.84 282.95 203.79 382.08 203.79 440.51 130.42"/><polygon class="cls-1" points="83.7 130.42 142.81 203.79 243.63 203.79 79.24 0.84 0 0.84 0 203.79 83.7 203.79 83.7 130.42"/><rect class="cls-1" x="607.17" y="0.84" width="83.7" height="202.96"/><rect class="cls-1" x="1053.49" y="0.84" width="79.51" height="202.96"/><polygon class="cls-1" points="854.94 135.05 914.68 203.79 1020.46 203.79 844.06 0.84 776.27 0.84 776.27 203.79 854.94 203.79 854.94 135.05"/><polygon class="cls-1" points="1405.31 74.4 1524.4 74.4 1524.4 0 1205.44 0 1205.44 74.4 1321.19 74.4 1321.19 203.79 1405.31 203.79 1405.31 74.4"/></svg>