<svg xmlns="http://www.w3.org/2000/svg" width="108" height="26" viewBox="0 0 108 26" fill="none"><path d="M101.43 6.6813V3.06673C101.43 1.37302 102.803 0 104.497 0C106.191 0 107.564 1.37302 107.564 3.06673C107.564 4.76043 106.191 6.13345 104.497 6.13345H104.34C103.842 6.13345 103.354 6.27673 102.935 6.54621L102.13 7.06347C101.828 7.25785 101.43 7.04075 101.43 6.6813Z" fill="#3C38FF"></path><path fill-rule="evenodd" clip-rule="evenodd" d="M89.7831 3.40771C89.5464 3.40771 89.3345 3.55456 89.2514 3.77622L82.8623 20.8136C82.7231 21.1849 82.9975 21.5809 83.394 21.5809H86.6107C86.8475 21.5809 87.0594 21.4341 87.1425 21.2124L87.984 18.9685H95.2248L96.0663 21.2124C96.1494 21.4341 96.3613 21.5809 96.598 21.5809H99.8147C100.211 21.5809 100.486 21.1849 100.346 20.8136L93.9574 3.77622C93.8743 3.55456 93.6624 3.40771 93.4256 3.40771H89.7831ZM91.6044 9.31414L93.8618 15.3339H89.347L91.6044 9.31414Z" fill="#ffffff"></path><path fill-rule="evenodd" clip-rule="evenodd" d="M69.1716 7.3831C69.1716 7.06945 69.4259 6.81519 69.7396 6.81519H72.6927C73.0064 6.81519 73.2607 7.06945 73.2607 7.3831V7.48302C74.1745 7.05459 75.1946 6.81519 76.2706 6.81519C80.1913 6.81519 83.3696 9.99348 83.3696 13.9141C83.3696 17.8347 80.1913 21.013 76.2706 21.013C75.1946 21.013 74.1745 20.7736 73.2607 20.3452V24.4205C73.2607 24.7341 73.0064 24.9884 72.6927 24.9884H69.7396C69.4259 24.9884 69.1716 24.7341 69.1716 24.4205V7.3831ZM73.2607 13.9141C73.2607 15.5764 74.6083 16.924 76.2706 16.924C77.933 16.924 79.2806 15.5764 79.2806 13.9141C79.2806 12.2518 77.933 10.9042 76.2706 10.9042C74.6083 10.9042 73.2607 12.2518 73.2607 13.9141Z" fill="#ffffff"></path><path d="M101.429 9.65475C101.429 8.40015 102.446 7.3831 103.701 7.3831H104.95C105.264 7.3831 105.518 7.63736 105.518 7.95101V21.013C105.518 21.3266 105.264 21.5809 104.95 21.5809H101.997C101.684 21.5809 101.429 21.3266 101.429 21.013V9.65475Z" fill="#ffffff"></path><path fill-rule="evenodd" clip-rule="evenodd" d="M38.6177 21.013V5.22503C38.6177 4.22136 39.4314 3.40771 40.435 3.40771H46.455C50.0306 3.40771 52.9292 6.30631 52.9292 9.88192C52.9292 13.4575 50.0306 16.3561 46.455 16.3561H42.7067V21.013C42.7067 21.3266 42.4524 21.5809 42.1388 21.5809H39.1856C38.872 21.5809 38.6177 21.3266 38.6177 21.013ZM42.7067 7.49668H46.455C47.7723 7.49668 48.8402 8.56459 48.8402 9.88192C48.8402 11.1992 47.7723 12.2671 46.455 12.2671H42.7067V7.49668Z" fill="#ffffff"></path><path fill-rule="evenodd" clip-rule="evenodd" d="M60.8233 6.81519C56.9026 6.81519 53.7243 9.99348 53.7243 13.9141V14.482C53.7243 18.4026 56.9026 21.5809 60.8233 21.5809C64.7439 21.5809 67.9222 18.4026 67.9222 14.482V13.9141C67.9222 9.99348 64.7439 6.81519 60.8233 6.81519ZM63.8332 14.482V13.9141C63.8332 12.2518 62.4856 10.9042 60.8233 10.9042C59.1609 10.9042 57.8133 12.2518 57.8133 13.9141V14.482C57.8133 16.1443 59.1609 17.4919 60.8233 17.4919C62.4856 17.4919 63.8332 16.1443 63.8332 14.482Z" fill="#ffffff"></path><ellipse cx="22.7158" cy="12.4945" rx="11.3583" ry="11.3582" fill="#FF2815"></ellipse><path d="M11.6991 23.8527H11.1386C9.27986 23.8527 7.46028 24.3871 5.89672 25.3923C3.43397 26.9755 0.187899 25.29 0.100339 22.3636C0.0439795 20.48 0 18.5591 0 17.1514C0 16.0447 0.0271765 14.2858 0.0661797 12.3314C0.190581 6.09761 5.38349 1.13623 11.6186 1.13623C17.8916 1.13623 23.0574 6.22149 23.0574 12.4945C23.0574 18.7675 17.9721 23.8527 11.6991 23.8527Z" fill="#3C38FF"></path><path d="M17.207 22.4298C13.7182 20.4913 11.3574 16.7686 11.3574 12.4945C11.3574 8.23284 13.7045 4.51939 17.1765 2.57617C20.6723 4.51939 23.0565 8.23284 23.0565 12.4945C23.0565 16.7686 20.6957 20.4913 17.207 22.4298Z" fill="#FF7DFF"></path></svg>