<svg width="130" height="26" viewBox="0 0 334 75" fill="none" xmlns="http://www.w3.org/2000/svg" aria-label="Runway Logo"><path d="M26.5491 18.1336C20.3609 18.1336 17.0473 21.8078 17.0473 28.3175V56.4329H0V1.32031H9.58162L15.5701 7.67025C18.4047 3.55677 22.6765 1.32031 28.4255 1.32031H33.5756V18.1336H26.5491Z" fill="white"></path><path d="M37.6895 1.32031H54.7367V32.2712C54.7367 38.0221 58.4896 41.9758 63.999 41.9758C69.5084 41.9758 73.1814 38.0221 73.1814 32.2712V1.32031H90.2286V56.4329H80.647L74.8182 50.2427C70.8658 54.9552 65.2366 57.7108 58.6892 57.7108C46.273 57.7108 37.6895 48.6452 37.6895 35.4262V1.32031Z" fill="white"></path><path d="M148.237 56.3905H131.19V25.6393C131.19 19.7287 127.397 15.6951 121.688 15.6951C115.979 15.6951 112.186 19.7287 112.186 25.6393V56.3905H95.1387V1.27798H104.72L110.629 7.54802C114.581 2.75563 120.29 0 126.998 0C139.573 0 148.237 9.18543 148.237 22.5642V56.3506V56.3905Z" fill="white"></path><path d="M146.361 1.32031H164.167L172.551 32.5907L182.652 1.32031H195.068L205.169 32.7105L213.552 1.32031H229.921L212.594 56.4329H197.703L187.922 26.1609L178.061 56.4329H164.087L146.441 1.32031H146.361Z" fill="white"></path><path d="M253.114 0.0390625C267.606 0.0390625 276.349 8.02639 276.349 21.3652V56.4296H266.688L261.697 51.0381C257.945 55.3912 252.595 57.7076 246.087 57.7076C234.51 57.7076 226.365 50.519 226.365 40.375C226.365 30.2311 234.27 23.2422 248.044 23.2422H259.781V21.4451C259.781 16.7326 257.146 14.1766 252.236 14.1766C247.325 14.1766 244.97 16.4131 244.69 20.1671H228.002C228.96 7.98645 238.821 0.0390625 253.114 0.0390625ZM259.781 36.3814V33.9852H249.84C245.568 33.9852 243.093 35.9421 243.093 39.2968C243.093 42.6515 246.008 45.0476 250.878 45.0476C255.749 45.0476 259.781 42.0524 259.781 36.3814Z" fill="white"></path><path d="M304.338 74.7247H286.332L295.994 51.6014L273.637 1.28125H293.519L305.096 31.2737L315.995 1.28125H334.001L304.338 74.7247Z" fill="white"></path></svg>