<?xml version="1.0" encoding="UTF-8"?>
<svg id="uipath-promo-logo-digital-rgb-orange-preferred" xmlns="http://www.w3.org/2000/svg" xmlns:i="http://ns.adobe.com/AdobeIllustrator/10.0/" version="1.1" viewBox="0 0 307 161">
  <!-- Generator: Adobe Illustrator 29.0.1, SVG Export Plug-In . SVG Version: 2.1.0 Build 192)  -->
  <defs>
    <style>
      .st0 {
        fill: #595959;
      }

      .st1 {
        fill: #fa4616;
      }
    </style>
  </defs>
  <g id="uipath-promo-logo-digital-rgb-orange-preferred1" data-name="uipath-promo-logo-digital-rgb-orange-preferred">
    <g id="uipath-corporate-logo-digital-rgb-orange-preferred">
      <path id="UiPath" class="st1" d="M0,0h109.99997v109.99997H0V0ZM11.38617,98.6138h87.22853V11.38572H11.38617v87.22808ZM55.36715,28.37218h11.38617v33.33049c0,15.05783-8.5394,24.14865-22.95525,24.14865-14.14059,0-22.49618-8.90702-22.49618-24.14865V28.37218h11.38617v33.33049c0,8.3556,3.48875,13.40536,11.38527,13.40536,7.62127,0,11.29382-4.7745,11.29382-13.40536V28.37218ZM88.42193,28.37218c0,4.04017-2.93822,6.79458-6.97749,6.79458-4.04017,0-6.97839-2.75442-6.97839-6.79458,0-4.13162,2.93822-6.97794,6.97839-6.97794,4.03927,0,6.97749,2.84632,6.97749,6.97794ZM75.7509,40.58414h11.38617v44.71576h-11.38617v-44.71576ZM163.53085,47.47062c0,12.21196-8.08034,19.46561-20.4761,19.46561h-10.28333v18.36366h-11.38617V28.37218h21.6695c12.57957,0,20.4761,7.34556,20.4761,19.09844ZM151.96177,47.47062c0-6.24361-3.5811-9.91661-10.10042-9.91661h-9.08993v20.29229h9.08993c6.51932,0,10.10042-3.67255,10.10042-10.37568ZM201.81919,40.58414h11.38617v44.71576h-11.38617v-5.04976c-3.02968,3.5811-7.80418,5.60118-14.5073,5.60118-12.1205,0-20.65901-9.54989-20.65901-22.8629,0-13.222,8.3556-22.95525,20.65901-22.95525,6.51932,0,11.47763,2.29579,14.5073,6.15215v-5.60118ZM201.81919,62.98842c0-7.71317-4.59069-13.03864-11.84434-13.03864s-11.75289,5.05021-11.75289,13.03864c0,7.43656,4.04017,12.85394,11.75289,12.85394,6.97839,0,11.84434-5.04976,11.84434-12.85394ZM241.02657,75.56709h4.49924v9.7328h-5.9688c-10.83475,0-15.51779-5.14122-15.51779-15.7007v-19.37371h-5.32502v-9.64135h5.32502v-12.21196h11.38617v12.21196h10.00807v9.64135h-10.00807v19.46516c0,3.94871,1.1934,5.87644,5.60118,5.87644ZM294.64889,59.31497v25.98493h-11.38527v-24.69918c0-6.79458-3.48964-11.20192-10.19277-11.20192-6.70223,0-10.7424,4.59114-10.7424,12.21151v23.68958h-11.38527V25.61776h11.38527v19.55751c2.84587-3.39729,7.34511-5.23357,13.49771-5.23357,10.55859,0,18.82273,7.62082,18.82273,19.37326Z"/>
      <path id="R" class="st1" d="M299.63951,37.17313c-4.39642,0-7.40412-3.06586-7.40412-7.3411,0-4.41581,3.10949-7.2999,7.40412-7.2999,4.35522,0,7.36049,2.94468,7.36049,7.2999,0,4.33583-3.02466,7.3411-7.36049,7.3411ZM299.63951,23.84088c-3.68146,0-6.01296,2.31212-6.01296,5.99115,0,3.68146,2.45511,5.95237,6.01296,5.95237,3.70084,0,5.99115-2.39452,5.99115-5.95237,0-3.65964-2.33151-5.99115-5.99115-5.99115ZM301.31665,30.9784l1.55353,2.90348h-1.84194l-1.47113-2.65869h-1.16575v2.65869h-1.65532v-8.26207h3.16765c1.80074,0,3.12887,1.06396,3.12887,2.76049,0,1.26755-.67376,2.16913-1.71591,2.5981ZM298.39136,29.89505h1.30875c.96217,0,1.61654-.53319,1.61654-1.51475,0-.89916-.65437-1.42993-1.61654-1.42993h-1.30875v2.94468Z"/>
    </g>
    <g>
      <path class="st0" d="M14.63227,148.25315H6.08392l-1.55149,4.47189H0l7.90978-21.4768h4.8976l7.87854,21.4768h-4.53243l-1.52122-4.47189ZM7.23998,144.84651h6.1757l-3.07272-9.0053-3.10299,9.0053Z"/>
      <path class="st0" d="M21.87322,154.54993h4.22877c.51749,1.82586,2.09925,2.70755,4.10672,2.70755,2.67728,0,4.13699-1.70283,4.13699-4.47189v-1.94693c-1.12578,1.33864-2.95067,2.06898-5.44536,2.06898-4.59297,0-7.818-3.55896-7.818-8.57861,0-4.98938,3.16352-8.70066,7.818-8.70066,2.43415,0,4.28931.88266,5.44536,2.34237v-2.09925h4.31958v16.91411c0,5.1417-3.22406,8.21442-8.15193,8.21442-4.65448,0-7.94005-2.28184-8.64013-6.45007ZM34.3457,144.32902c0-2.9204-1.70381-4.92787-4.44162-4.92787s-4.44065,1.91569-4.44065,4.92787c0,2.79835,1.52025,4.83707,4.44065,4.83707,2.61674,0,4.44162-1.91667,4.44162-4.83707Z"/>
      <path class="st0" d="M57.57221,145.60614h-12.68534c.48722,2.49469,2.15979,3.77279,4.16823,3.77279,1.82488,0,3.25433-.76061,3.71128-2.37264h4.5627c-.85142,3.71128-4.16726,5.90134-8.12166,5.90134-5.35456,0-8.64013-3.46816-8.64013-8.6704,0-5.29304,3.37638-8.60888,8.64013-8.60888,3.25433,0,5.93161,1.39918,7.36105,3.8636.9432,1.82488,1.36891,4.10672,1.00373,6.11419ZM53.16183,142.47289c0-1.76435-1.70381-3.37638-3.9544-3.37638-2.61674,0-3.8636,1.61203-4.29028,3.37638h8.24469Z"/>
      <path class="st0" d="M75.97239,142.92984v9.7952h-4.28931v-9.30896c0-2.55523-1.30837-4.22877-3.8636-4.22877-2.52496,0-4.04618,1.73408-4.04618,4.59394v8.94379h-4.28931v-16.85357h4.28931v1.70381c1.09552-1.27713,2.76906-1.94693,5.11143-1.94693,3.9544,0,7.08766,2.85986,7.08766,7.30149Z"/>
      <path class="st0" d="M87.51534,149.04403v3.68101h-2.25157c-4.07645,0-5.8408-1.94693-5.8408-5.90134v-7.30149h-2.00747v-3.65074h2.00747v-4.59297h4.28931v4.59297h3.77182v3.65074h-3.77182v7.33176c0,1.48998.45598,2.19006,2.09925,2.19006h1.70381Z"/>
      <path class="st0" d="M89.06097,131.24824c0-1.55149,1.09454-2.61674,2.61576-2.61674,1.55149,0,2.64701,1.06525,2.64701,2.61674s-1.09552,2.5855-2.64701,2.5855c-1.52122,0-2.61576-1.034-2.61576-2.5855ZM93.83653,135.87148v16.85357h-4.28931v-16.85357h4.28931Z"/>
      <path class="st0" d="M112.44858,142.1995h-4.53243c-.39544-1.85613-1.76532-2.8296-3.71226-2.8296-2.55523,0-4.25806,2.03871-4.25806,4.89858,0,2.88916,1.79462,4.8976,4.25806,4.8976,2.00845,0,3.34709-1.09552,3.71226-2.8296h4.53243c-.73034,4.16823-3.8636,6.57114-8.15291,6.57114-5.08019,0-8.73093-3.43789-8.73093-8.63915,0-5.32429,3.65074-8.64013,8.73093-8.64013,4.38011,0,7.42256,2.49469,8.15291,6.57114Z"/>
      <path class="st0" d="M140.37448,135.87148v16.85357h-4.31958v-1.91667c-1.12578,1.33864-2.95067,2.09925-5.44536,2.09925-4.59297,0-7.818-3.58923-7.818-8.60888,0-4.98938,3.16352-8.6704,7.818-8.6704,2.43415,0,4.28931.85239,5.44536,2.31211v-2.06898h4.31958ZM136.05491,144.29875c0-2.9204-1.70381-4.92885-4.44162-4.92885s-4.44065,1.91667-4.44065,4.92885c0,2.79835,1.52025,4.83707,4.44065,4.83707,2.61674,0,4.44162-1.91667,4.44162-4.83707Z"/>
      <path class="st0" d="M159.43764,135.87148v16.85357h-4.28931v-1.73408c-1.09552,1.2781-2.76808,1.91667-5.11046,1.91667-3.95538,0-7.08863-2.79835-7.08863-7.23998v-9.79618h4.28931v9.30896c0,2.55523,1.30837,4.22877,3.8636,4.22877,2.52496,0,4.04618-1.73408,4.04618-4.59394v-8.94379h4.28931Z"/>
      <path class="st0" d="M171.41606,149.04403v3.68101h-2.25157c-4.07645,0-5.8408-1.94693-5.8408-5.90134v-7.30149h-2.00747v-3.65074h2.00747v-4.59297h4.28931v4.59297h3.77182v3.65074h-3.77182v7.33176c0,1.48998.45598,2.19006,2.09925,2.19006h1.70381Z"/>
      <path class="st0" d="M189.64049,144.23724c0,5.29402-3.62048,8.6704-8.63915,8.6704-5.11143,0-8.64013-3.43789-8.64013-8.6704,0-5.26277,3.55896-8.60888,8.64013-8.60888,5.17099,0,8.63915,3.43789,8.63915,8.60888ZM176.7423,144.23724c0,2.95164,1.67257,4.95911,4.25904,4.95911,2.64603,0,4.25806-2.06898,4.25806-4.95911,0-2.95067-1.67257-4.8976-4.25806-4.8976-2.64701,0-4.25904,2.03871-4.25904,4.8976Z"/>
      <path class="st0" d="M219.59729,142.92984v9.7952h-4.28931v-9.30896c0-2.55523-1.30837-4.22877-3.74253-4.22877-2.52496,0-3.89387,1.73408-3.89387,4.59394v8.94379h-4.25806v-9.30896c0-2.55523-1.40015-4.22877-3.59021-4.22877-2.52496,0-4.04618,1.73408-4.04618,4.59394v8.94379h-4.28931v-16.85357h4.28931v1.70381c1.09552-1.27713,2.76808-1.94693,5.11143-1.94693,2.25059,0,4.28931,1.06525,5.53616,2.9204,1.12578-1.91667,3.34611-2.9204,6.20597-2.9204,3.83333,0,6.96658,2.85986,6.96658,7.30149Z"/>
      <path class="st0" d="M239.00609,135.87148v16.85357h-4.31958v-1.91667c-1.12578,1.33864-2.95067,2.09925-5.44536,2.09925-4.59297,0-7.818-3.58923-7.818-8.60888,0-4.98938,3.16352-8.6704,7.818-8.6704,2.43415,0,4.28931.85239,5.44536,2.31211v-2.06898h4.31958ZM234.68652,144.29875c0-2.9204-1.70381-4.92885-4.44162-4.92885s-4.44065,1.91667-4.44065,4.92885c0,2.79835,1.52025,4.83707,4.44065,4.83707,2.61674,0,4.44162-1.91667,4.44162-4.83707Z"/>
      <path class="st0" d="M250.98452,149.04403v3.68101h-2.25157c-4.07645,0-5.8408-1.94693-5.8408-5.90134v-7.30149h-2.00747v-3.65074h2.00747v-4.59297h4.28931v4.59297h3.77182v3.65074h-3.77182v7.33176c0,1.48998.45598,2.19006,2.09925,2.19006h1.70381Z"/>
      <path class="st0" d="M252.53015,131.24824c0-1.55149,1.09454-2.61674,2.61576-2.61674,1.55149,0,2.64701,1.06525,2.64701,2.61674s-1.09552,2.5855-2.64701,2.5855c-1.52122,0-2.61576-1.034-2.61576-2.5855ZM257.3057,135.87148v16.85357h-4.28931v-16.85357h4.28931Z"/>
      <path class="st0" d="M276.3132,144.23724c0,5.29402-3.62048,8.6704-8.63915,8.6704-5.11143,0-8.64013-3.43789-8.64013-8.6704,0-5.26277,3.55896-8.60888,8.64013-8.60888,5.17099,0,8.63915,3.43789,8.63915,8.60888ZM263.41501,144.23724c0,2.95164,1.67257,4.95911,4.25904,4.95911,2.64603,0,4.25806-2.06898,4.25806-4.95911,0-2.95067-1.67257-4.8976-4.25806-4.8976-2.64701,0-4.25904,2.03871-4.25904,4.8976Z"/>
      <path class="st0" d="M294.64894,142.92984v9.7952h-4.28931v-9.30896c0-2.55523-1.30837-4.22877-3.8636-4.22877-2.52496,0-4.04618,1.73408-4.04618,4.59394v8.94379h-4.28931v-16.85357h4.28931v1.70381c1.09552-1.27713,2.76808-1.94693,5.11143-1.94693,3.9544,0,7.08766,2.85986,7.08766,7.30149Z"/>
    </g>
  </g>

</svg>